<svg width="24" height="21" viewBox="0 0 24 21" fill="none" xmlns="http://www.w3.org/2000/svg">
<path d="M23.8557 3.11686C22.965 3.51084 22.0205 3.76958 21.0534 3.88453C22.0728 3.27487 22.8357 2.31538 23.2001 1.18486C22.2434 1.75419 21.1946 2.15319 20.1014 2.36903C19.3671 1.58337 18.3938 1.06232 17.3328 0.886877C16.2719 0.711435 15.1827 0.891434 14.2345 1.39889C13.2864 1.90635 12.5325 2.71283 12.09 3.69295C11.6475 4.67308 11.5413 5.77194 11.7877 6.8187C9.84769 6.72146 7.94978 6.21731 6.21723 5.33897C4.48468 4.46063 2.95621 3.22775 1.73106 1.72036C1.2974 2.46522 1.06951 3.31196 1.07073 4.17386C1.07073 5.86553 1.93173 7.36003 3.24073 8.23503C2.46607 8.21064 1.70847 8.00144 1.03106 7.62486V7.68553C1.0313 8.81218 1.42116 9.90408 2.13455 10.7761C2.84794 11.6481 3.84096 12.2466 4.94523 12.47C4.22611 12.6649 3.47209 12.6936 2.74023 12.554C3.05157 13.5238 3.6584 14.3719 4.47575 14.9797C5.2931 15.5874 6.28004 15.9243 7.29839 15.9432C6.28629 16.7381 5.12743 17.3257 3.88809 17.6724C2.64874 18.0191 1.35321 18.1182 0.0755615 17.9639C2.30588 19.3982 4.90217 20.1597 7.55389 20.1572C16.5291 20.1572 21.4372 12.722 21.4372 6.27386C21.4372 6.06386 21.4314 5.85153 21.4221 5.64386C22.3774 4.95339 23.2019 4.09805 23.8569 3.11803L23.8557 3.11686Z" fill="black"/>
</svg>
